<?xml version="1.0" standalone="no"?>
<!DOCTYPE svg PUBLIC "-//W3C//DTD SVG 20010904//EN"
 "http://www.w3.org/TR/2001/REC-SVG-20010904/DTD/svg10.dtd">
<svg version="1.0" xmlns="http://www.w3.org/2000/svg"
 width="456.000000pt" height="456.000000pt" viewBox="0 0 456.000000 456.000000"
 preserveAspectRatio="xMidYMid meet">
<metadata>
Created by potrace 1.11, written by Peter Selinger 2001-2013
</metadata>
<g transform="translate(0.000000,456.000000) scale(0.100000,-0.100000)"
fill="#000000" stroke="none">
<path d="M3525 3791 c-47 -29 -80 -66 -112 -128 -89 -170 -97 -390 -24 -589
11 -28 49 -115 85 -195 36 -80 69 -166 72 -191 9 -64 -22 -123 -115 -215 -95
-94 -184 -140 -288 -149 -44 -4 -73 -3 -73 3 0 5 12 38 26 74 68 165 80 264
42 339 -70 135 -284 92 -392 -78 -75 -120 -104 -362 -50 -423 13 -14 8 -20
-45 -58 -73 -51 -178 -154 -221 -216 -18 -26 -63 -113 -101 -194 -245 -521
-387 -684 -849 -973 -30 -19 -64 -38 -75 -43 -20 -8 -20 -9 1 -12 12 -2 57 7
100 21 44 14 115 34 159 46 219 58 360 147 471 300 52 72 90 147 154 300 104
248 168 355 282 469 79 78 174 153 280 219 l66 41 47 -16 c36 -12 73 -14 155
-11 101 4 115 7 182 41 159 78 279 250 303 433 4 27 11 69 15 94 13 67 6 188
-14 245 -10 28 -46 111 -81 185 -86 183 -107 249 -109 340 -2 120 41 183 123
182 106 -2 207 -112 266 -290 l17 -53 -27 -27 c-66 -66 -114 -226 -90 -302 14
-45 56 -89 111 -116 l54 -26 -40 -44 c-127 -137 -191 -310 -191 -509 0 -38 3
-81 6 -95 14 -73 19 -89 40 -130 33 -65 100 -127 165 -151 45 -17 70 -20 141
-16 143 7 257 77 371 226 86 114 198 369 198 453 0 25 -3 28 -14 19 -8 -7 -17
-24 -21 -39 -9 -36 -70 -156 -105 -207 -136 -196 -379 -313 -538 -261 -98 33
-177 133 -186 234 -4 50 18 136 51 192 43 74 135 183 144 169 7 -12 4 -121 -6
-198 -10 -84 18 -44 70 99 13 36 25 94 27 129 l4 65 47 28 c25 15 72 41 104
59 82 45 109 73 154 162 21 43 39 80 39 82 0 3 -31 -16 -70 -41 -38 -24 -89
-52 -112 -61 -46 -16 -155 -26 -162 -14 -3 4 -7 43 -11 86 -3 44 -9 88 -12 98
-4 16 -1 18 19 12 65 -20 111 -61 122 -107 14 -59 26 -25 26 70 0 94 -1 99
-27 124 -34 31 -95 58 -134 58 -25 0 -30 5 -39 43 -64 242 -156 401 -257 444
-46 19 -113 16 -148 -6z m331 -636 c0 -5 4 -35 9 -65 4 -30 9 -65 9 -76 l2
-21 -36 22 c-43 27 -81 80 -73 103 14 39 87 69 89 37z m-837 -528 c62 -30 84
-117 44 -173 -28 -39 -139 -110 -166 -106 -12 2 -31 5 -43 7 -46 7 -106 46
-119 77 -49 117 156 258 284 195z"/>
<path d="M2143 3363 c-186 -256 -214 -324 -219 -527 -3 -122 4 -166 26 -166 6
0 10 21 10 48 1 75 25 168 65 248 36 74 54 91 56 54 1 -11 2 -23 3 -27 1 -5 6
-42 10 -83 5 -41 10 -82 11 -90 2 -8 6 -51 10 -95 3 -44 8 -91 10 -105 7 -49
16 -257 16 -382 0 -259 -33 -422 -110 -547 -74 -119 -136 -179 -306 -296 -38
-27 -72 -50 -74 -51 -2 -2 -1 -10 2 -18 5 -12 20 -10 94 13 120 37 200 82 271
151 173 167 280 439 311 787 11 127 4 456 -14 608 -3 26 -12 117 -20 210 -4
44 -15 136 -20 165 -5 28 -17 171 -19 213 -1 15 -4 27 -7 27 -4 0 -51 -62
-106 -137z"/>
<path d="M2783 3238 c-13 -17 -63 -133 -63 -145 0 -18 70 -80 121 -107 62 -34
69 -29 115 69 l32 70 -50 27 c-28 15 -70 43 -93 63 -49 40 -49 40 -62 23z"/>
<path d="M1505 2769 c-4 -10 -11 -19 -16 -19 -5 0 -9 -6 -9 -14 0 -7 -7 -27
-15 -42 -20 -39 -19 -44 10 -84 14 -19 25 -30 25 -26 0 4 13 -2 29 -13 16 -12
34 -21 40 -21 6 0 11 -4 11 -10 0 -6 10 -5 25 2 14 6 25 16 25 21 0 6 8 19 18
30 9 11 11 17 4 13 -11 -7 -11 -4 0 15 7 13 15 26 18 29 13 13 8 32 -10 37
-11 3 -20 10 -20 15 0 5 -4 7 -8 4 -5 -3 -18 4 -30 14 -12 11 -26 20 -31 20
-5 0 -13 5 -17 12 -4 7 -3 8 4 4 7 -4 12 -5 12 -2 0 2 -13 11 -30 19 -27 14
-30 14 -35 -4z"/>
<path d="M1115 2687 c-5 -7 -11 -19 -13 -27 -2 -8 -9 -18 -15 -22 -7 -4 -9 -8
-5 -8 4 0 3 -12 -3 -26 -7 -20 -6 -32 6 -50 18 -28 98 -84 120 -84 19 0 38 18
43 40 2 8 9 18 15 22 7 4 8 8 3 8 -4 0 -1 11 8 25 16 24 15 25 -11 42 -16 10
-31 22 -35 28 -5 6 -8 6 -8 0 0 -7 -3 -7 -8 0 -7 11 -79 65 -84 65 -2 -1 -7
-6 -13 -13z"/>
<path d="M881 2598 c-35 -77 -30 -92 45 -137 74 -46 83 -45 114 14 31 56 34
102 9 97 -9 -1 -19 5 -23 13 -3 9 -10 14 -15 10 -5 -3 -16 4 -24 15 -7 11 -16
18 -19 15 -3 -3 -13 4 -23 15 -10 11 -22 20 -27 20 -5 0 -22 -28 -37 -62z"/>
<path d="M1080 2397 c-19 -28 -38 -54 -43 -55 -4 -2 -5 -8 -2 -12 3 -5 -10
-16 -29 -25 -19 -9 -40 -23 -47 -31 -6 -8 -20 -14 -31 -14 -10 0 -17 -4 -13
-9 3 -5 -4 -12 -15 -16 -11 -3 -19 -9 -18 -13 3 -14 -23 -91 -32 -97 -6 -4 -8
-10 -5 -15 3 -4 -2 -27 -10 -50 -17 -49 -12 -65 15 -48 10 7 17 15 15 18 -2 3
16 19 40 35 25 17 45 33 45 38 0 4 5 7 11 7 5 0 8 -4 5 -8 -8 -14 -19 -125
-19 -195 0 -76 27 -176 54 -206 11 -11 19 -25 19 -31 0 -6 5 -8 10 -5 6 3 10
1 10 -4 0 -6 7 -11 15 -11 8 0 15 -4 15 -8 0 -12 84 -19 125 -10 41 9 96 41
124 73 16 19 32 31 36 27 4 -4 5 -2 4 3 -2 6 9 28 23 51 30 47 48 102 62 189
4 22 9 54 12 70 15 76 6 214 -16 241 -7 7 -9 14 -5 14 4 0 -6 13 -23 29 -16
16 -29 31 -29 33 1 2 0 2 -2 0 -3 -1 -16 5 -30 15 -32 21 -140 21 -198 0 -24
-8 -43 -13 -43 -11 0 3 6 20 14 39 13 31 12 45 -3 45 -3 0 -22 -24 -41 -53z
m228 -216 c2 -6 7 -9 12 -6 11 7 72 -64 65 -76 -4 -5 -1 -9 5 -9 6 0 8 -11 5
-27 -16 -92 -84 -174 -180 -216 -30 -14 -103 -18 -110 -7 -4 6 -10 8 -14 6
-26 -17 -90 103 -86 160 4 48 17 94 26 94 6 0 8 4 5 8 -7 12 23 54 34 47 4 -3
10 0 12 5 2 6 10 12 18 14 8 2 28 8 43 15 16 6 32 9 36 7 4 -3 13 -1 19 3 17
11 105 -4 110 -18z"/>
<path d="M1675 2442 c2 -2 -4 -20 -12 -40 -8 -20 -17 -48 -19 -62 -9 -59 -13
-88 -19 -135 -3 -27 -9 -59 -12 -70 -4 -11 -8 -27 -10 -35 -1 -8 -5 -30 -9
-47 -3 -18 -11 -33 -17 -33 -6 0 -8 -3 -4 -6 7 -8 -23 -86 -37 -96 -6 -4 -7
-8 -3 -8 15 0 -93 -173 -127 -205 -6 -5 -26 -27 -43 -48 -18 -21 -33 -36 -33
-33 0 3 -16 -11 -35 -31 -19 -20 -35 -34 -35 -31 0 4 -14 -7 -31 -23 -17 -16
-36 -26 -42 -22 -5 3 -7 1 -4 -4 6 -9 -20 -27 -32 -23 -2 1 -8 -5 -13 -14 -5
-9 -13 -14 -19 -11 -5 4 -9 2 -9 -3 0 -5 -18 -21 -40 -36 -45 -29 -46 -52 -2
-35 15 6 29 11 32 11 3 0 10 2 15 4 6 1 37 8 70 15 33 7 62 13 65 14 48 11
162 57 193 77 15 11 27 16 27 11 0 -4 4 -2 8 5 5 6 23 23 42 37 19 14 30 25
25 25 -4 0 1 8 12 18 25 22 93 138 86 146 -4 3 -1 6 6 6 7 0 9 5 6 10 -3 6 -3
16 2 23 4 6 8 17 10 22 20 89 32 152 38 205 9 78 15 131 17 147 1 7 6 11 12
10 16 -3 56 -50 50 -59 -3 -4 -1 -8 4 -8 5 0 12 -9 15 -20 9 -35 27 -21 28 23
2 71 0 105 -16 194 -3 24 -5 44 -4 45 3 3 -23 36 -48 63 -7 7 -9 16 -5 20 4 5
2 5 -5 1 -6 -3 -14 -2 -18 4 -3 6 -19 9 -35 8 -16 -1 -27 -4 -25 -6z"/>
</g>
</svg>
